<?xml version="1.0" encoding="UTF-8" standalone="no"?>
<svg
   viewBox="0 0 128 128"
   version="1.1"
   id="svg1604"
   sodipodi:docname="bash_logo.svg"
   inkscape:version="1.1.1 (3bf5ae0d25, 2021-09-20)"
   xmlns:inkscape="http://www.inkscape.org/namespaces/inkscape"
   xmlns:sodipodi="http://sodipodi.sourceforge.net/DTD/sodipodi-0.dtd"
   xmlns="http://www.w3.org/2000/svg"
   xmlns:svg="http://www.w3.org/2000/svg">
  <defs
     id="defs1608" />
  <sodipodi:namedview
     id="namedview1606"
     pagecolor="#505050"
     bordercolor="#eeeeee"
     borderopacity="1"
     inkscape:pageshadow="0"
     inkscape:pageopacity="0"
     inkscape:pagecheckerboard="0"
     showgrid="false"
     inkscape:zoom="4.8226892"
     inkscape:cx="-8.9161872"
     inkscape:cy="6.5316255"
     inkscape:window-width="3440"
     inkscape:window-height="1376"
     inkscape:window-x="1280"
     inkscape:window-y="27"
     inkscape:window-maximized="1"
     inkscape:current-layer="svg1604" />
  <path
     fill="none"
     d="M4.24 4.24h119.53v119.53H4.24z"
     id="path1598" />
  <path
     fill="#293138"
     d="M109.01 28.64L71.28 6.24c-2.25-1.33-4.77-2-7.28-2s-5.03.67-7.28 2.01l-37.74 22.4c-4.5 2.67-7.28 7.61-7.28 12.96v44.8c0 5.35 2.77 10.29 7.28 12.96l37.73 22.4c2.25 1.34 4.76 2 7.28 2 2.51 0 5.03-.67 7.28-2l37.74-22.4c4.5-2.67 7.28-7.62 7.28-12.96V41.6c0-5.34-2.77-10.29-7.28-12.96zM79.79 98.59l.06 3.22c0 .39-.25.83-.55.99l-1.91 1.1c-.3.15-.56-.03-.56-.42l-.03-3.17c-1.63.68-3.29.84-4.34.42-.2-.08-.29-.37-.21-.71l.69-2.91c.06-.23.18-.46.34-.6.06-.06.12-.1.18-.13.11-.06.22-.07.31-.03 1.14.38 2.59.2 3.99-.5 1.78-.9 2.97-2.72 2.95-4.52-.02-1.64-.9-2.31-3.05-2.33-2.74.01-5.3-.53-5.34-4.57-.03-3.32 1.69-6.78 4.43-8.96l-.03-3.25c0-.4.24-.84.55-1l1.85-1.18c.3-.15.56.04.56.43l.03 3.25c1.36-.54 2.54-.69 3.61-.44.23.06.34.38.24.75l-.72 2.88c-.06.22-.18.44-.33.58a.77.77 0 01-.19.14c-.1.05-.19.06-.28.05-.49-.11-1.65-.36-3.48.56-1.92.97-2.59 2.64-2.58 3.88.02 1.48.77 1.93 3.39 1.97 3.49.06 4.99 1.58 5.03 5.09.05 3.44-1.79 7.15-4.61 9.41zm26.34-60.5l-35.7 22.05c-4.45 2.6-7.73 5.52-7.74 10.89v43.99c0 3.21 1.3 5.29 3.29 5.9-.65.11-1.32.19-1.98.19-2.09 0-4.15-.57-5.96-1.64l-37.73-22.4c-3.69-2.19-5.98-6.28-5.98-10.67V41.6c0-4.39 2.29-8.48 5.98-10.67l37.74-22.4c1.81-1.07 3.87-1.64 5.96-1.64s4.15.57 5.96 1.64l37.74 22.4c3.11 1.85 5.21 5.04 5.8 8.63-1.27-2.67-4.09-3.39-7.38-1.47z"
     id="path1600"
     style="stroke:#ffffff;stroke-opacity:1;stroke-width:7.55905512;stroke-miterlimit:4;stroke-dasharray:none" />
  <path
     fill="#293138"
     d="M 109.01,28.64 71.28,6.2399999 c -2.25,-1.33 -4.77,-2 -7.28,-2 -2.51,0 -5.03,0.67 -7.28,2.01 L 18.980001,28.65 c -4.5,2.67 -7.28,7.61 -7.28,12.96 v 44.8 c 0,5.35 2.77,10.29 7.28,12.96 L 56.71,121.77 c 2.25,1.34 4.76,2 7.28,2 2.51,0 5.03,-0.67 7.28,-2 l 37.74,-22.4 c 4.5,-2.67 7.28,-7.62 7.28,-12.96 V 41.6 c 0,-5.34 -2.77,-10.29 -7.28,-12.96 z m -29.22,69.95 0.06,3.22 c 0,0.39 -0.25,0.83 -0.55,0.99 l -1.91,1.1 c -0.3,0.15 -0.56,-0.03 -0.56,-0.42 l -0.03,-3.17 c -1.63,0.68 -3.29,0.84 -4.34,0.42 -0.2,-0.08 -0.29,-0.37 -0.21,-0.71 l 0.69,-2.91 c 0.06,-0.23 0.18,-0.46 0.34,-0.6 0.06,-0.06 0.12,-0.1 0.18,-0.13 0.11,-0.06 0.22,-0.07 0.31,-0.03 1.14,0.38 2.59,0.2 3.99,-0.5 1.78,-0.9 2.97,-2.72 2.95,-4.52 -0.02,-1.64 -0.9,-2.31 -3.05,-2.33 -2.74,0.01 -5.3,-0.53 -5.34,-4.57 -0.03,-3.32 1.69,-6.78 4.43,-8.96 l -0.03,-3.25 c 0,-0.4 0.24,-0.84 0.55,-1 l 1.85,-1.18 c 0.3,-0.15 0.56,0.04 0.56,0.43 l 0.03,3.25 c 1.36,-0.54 2.54,-0.69 3.61,-0.44 0.23,0.06 0.34,0.38 0.24,0.75 l -0.72,2.88 c -0.06,0.22 -0.18,0.44 -0.33,0.58 a 0.77,0.77 0 0 1 -0.19,0.14 c -0.1,0.05 -0.19,0.06 -0.28,0.05 -0.49,-0.11 -1.65,-0.36 -3.48,0.56 -1.92,0.97 -2.59,2.64 -2.58,3.88 0.02,1.48 0.77,1.93 3.39,1.97 3.49,0.06 4.99,1.58 5.03,5.09 0.05,3.44 -1.79,7.15 -4.61,9.41 z m 26.34,-60.5 -35.7,22.05 c -4.45,2.6 -7.73,5.52 -7.74,10.89 v 43.99 c 0,3.21 1.3,5.29 3.29,5.9 -0.65,0.11 -1.32,0.19 -1.98,0.19 -2.09,0 -4.15,-0.57 -5.96,-1.64 L 20.310001,97.07 c -3.69,-2.19 -5.98,-6.28 -5.98,-10.67 V 41.6 c 0,-4.39 2.29,-8.48 5.98,-10.67 L 58.05,8.5299999 c 1.81,-1.07 3.87,-1.64 5.96,-1.64 2.09,0 4.15,0.57 5.96,1.64 L 107.71,30.93 c 3.11,1.85 5.21,5.04 5.8,8.63 -1.27,-2.67 -4.09,-3.39 -7.38,-1.47 z"
     id="path1600-3"
     style="stroke:none;stroke-width:1;stroke-miterlimit:4;stroke-dasharray:none;stroke-opacity:1" />
  <path
     fill="#4FA847"
     d="M99.12 90.73l-9.4 5.62c-.25.15-.43.31-.43.61v2.46c0 .3.2.43.45.28l9.54-5.8c.25-.15.29-.42.29-.72v-2.17c0-.3-.2-.42-.45-.28z"
     id="path1602" />
</svg>
