<?xml version="1.0" encoding="UTF-8" standalone="no"?>
<svg
   height="500"
   overflow="scroll"
   width="1200"
   version="1.1"
   id="svg942"
   sodipodi:docname="LaTeX_logo.svg"
   inkscape:version="1.1.1 (3bf5ae0d25, 2021-09-20)"
   xmlns:inkscape="http://www.inkscape.org/namespaces/inkscape"
   xmlns:sodipodi="http://sodipodi.sourceforge.net/DTD/sodipodi-0.dtd"
   xmlns="http://www.w3.org/2000/svg"
   xmlns:svg="http://www.w3.org/2000/svg">
  <defs
     id="defs946" />
  <sodipodi:namedview
     id="namedview944"
     pagecolor="#505050"
     bordercolor="#eeeeee"
     borderopacity="1"
     inkscape:pageshadow="0"
     inkscape:pageopacity="0"
     inkscape:pagecheckerboard="0"
     showgrid="false"
     inkscape:zoom="0.18561553"
     inkscape:cx="765.02219"
     inkscape:cy="137.38075"
     inkscape:window-width="3440"
     inkscape:window-height="1376"
     inkscape:window-x="1280"
     inkscape:window-y="27"
     inkscape:window-maximized="1"
     inkscape:current-layer="svg942" />
  <path
     d="m 271.94025,246.95085 h -11.8125 c -4.725,48.195 -11.34,106.785 -94.5,106.785 h -38.2725 c -22.2075,0 -23.1525,-3.3075 -23.1525,-18.9 V 83.938358 c 0,-16.064999 0,-22.679999 44.415,-22.679999 h 15.5925 v -14.175 c -17.01,1.4175 -59.535,1.4175 -78.907496,1.4175 -18.427503,0 -55.282503,0 -71.347503,-1.4175 v 14.175 h 10.8675 c 36.382501,0 37.3275,5.1975 37.3275,22.207499 V 331.52835 c 0,17.01 -0.944999,22.2075 -37.3275,22.2075 h -10.8675 v 14.6475 H 259.18275 Z"
     id="path932"
     style="stroke:#ffffff;stroke-width:15;stroke-linecap:butt;stroke-linejoin:round;stroke-miterlimit:4;stroke-dasharray:none;stroke-opacity:1" />
  <path
     d="m 263.90775,46.610859 c -1.89,-5.67 -2.835,-7.56 -8.9775,-7.56 -6.1425,0 -7.56,1.89 -9.45,7.56 l -76.0725,192.779991 c -3.3075,8.0325 -8.9775,22.68 -38.2725,22.68 v 11.8125 h 73.2375 v -11.8125 c -14.6475,0 -23.625,-6.615 -23.625,-16.065 0,-2.3625 0.4725,-3.3075 1.4175,-6.615 0,0 16.065,-40.635 16.065,-40.635 h 93.555 l 18.9,48.195 c 0.945,1.89 1.89,4.2525 1.89,5.67 0,9.45 -17.955,9.45 -26.9325,9.45 v 11.8125 h 93.0825 v -11.8125 h -6.615 c -22.2075,0 -24.57,-3.3075 -27.87749,-12.7575 0,0 -80.32501,-202.702491 -80.32501,-202.702491 z m -18.9,33.5475 42.0525,106.784991 h -84.105 z"
     id="path934"
     style="stroke:#ffffff;stroke-width:15;stroke-linecap:butt;stroke-linejoin:round;stroke-miterlimit:4;stroke-dasharray:none;stroke-opacity:1" />
  <path
     d="m 642.38025,49.918359 h -287.7525 c 0,0 -8.505,105.839991 -8.505,105.839991 h 11.34 c 6.615,-76.072491 13.7025,-91.664991 85.05,-91.664991 8.505,0 20.79,0 25.515,0.945 9.9225,1.89 9.9225,7.0875 9.9225,17.954999 V 331.05585 c 0,16.065 0,22.68 -49.6125,22.68 h -18.9 v 14.6475 c 19.3725,-1.4175 67.095,-1.4175 88.83,-1.4175 21.735,0 70.4025,0 89.775,1.4175 v -14.6475 h -18.9 c -49.6125,0 -49.6125,-6.615 -49.6125,-22.68 V 82.993358 c 0,-9.449999 0,-16.064999 8.505,-17.954999 5.1975,-0.945 17.955,-0.945 26.9325,-0.945 70.875,0 77.9625,15.5925 84.5775,91.664991 h 11.8125 c 0,0 -8.9775,-105.839991 -8.9775,-105.839991 z"
     id="path936"
     style="stroke:#ffffff;stroke-width:15;stroke-linecap:butt;stroke-linejoin:round;stroke-miterlimit:4;stroke-dasharray:none;stroke-opacity:1" />
  <path
     d="m 895.64025,353.26335 h -11.8125 c -11.8125,72.2925 -22.68,106.785 -103.4775,106.785 h -62.37 c -22.2075,0 -23.1525,-3.3075 -23.1525,-18.9 v -125.685 h 42.0525 c 45.8325,0 51.03,15.12 51.03,55.2825 h 11.8125 v -124.74 h -11.8125 c 0,40.1625 -5.1975,54.80999 -51.03,54.80999 h -42.0525 V 187.88835 c 0,-15.5925 0.945,-18.9 23.1525,-18.9 h 60.48 c 72.2925,0 84.5775,25.9875 92.1375,91.665 h 11.8125 l -13.23,-105.84 h -264.6 v 14.175 h 10.8675 c 36.3825,0 37.3275,5.1975 37.3275,22.2075 v 246.645 c 0,17.01 -0.945,22.2075 -37.3275,22.2075 h -10.8675 v 14.6475 h 271.215 z"
     id="path938"
     style="stroke:#ffffff;stroke-width:15;stroke-linecap:butt;stroke-linejoin:round;stroke-miterlimit:4;stroke-dasharray:none;stroke-opacity:1" />
  <path
     d="m 1037.8627,186.47085 64.7325,-94.499992 c 9.9225,-15.119999 25.9875,-30.239999 68.04,-30.712499 v -14.175 h -112.455 v 14.175 c 18.9,0.4725 29.295,10.8675 29.295,21.734999 0,4.725 -0.945,5.67 -4.2525,10.86751 0,0 -53.865,79.379982 -53.865,79.379982 L 968.87775,82.520858 c -0.945,-1.417499 -3.30749,-5.197499 -3.30749,-7.087499 0,-5.67 10.39504,-13.7025 30.23998,-14.175 v -14.175 c -16.06503,1.4175 -50.55749,1.4175 -68.51249,1.4175 -14.6475,0 -43.9425,-0.4725 -61.425,-1.4175 v 14.175 h 8.9775 c 25.9875,0 34.965,3.3075 43.9425,16.5375 0,0 86.46745,130.882491 86.46745,130.882491 l -77.01745,113.8725 c -6.615,9.45 -20.79,31.185 -68.04,31.185 v 14.6475 h 112.455 v -14.6475 c -21.735,-0.4725 -29.7675,-13.23 -29.7675,-21.735 0,-4.2525 1.4175,-6.1425 4.725,-11.34 l 66.62245,-98.7525 74.655,112.455 c 0.945,1.89 2.3625,3.78 2.3625,5.1975 0,5.67 -10.395,13.7025 -30.7125,14.175 v 14.6475 c 16.5375,-1.4175 51.03,-1.4175 68.5125,-1.4175 19.845,0 41.58,0.4725 61.425,1.4175 v -14.6475 h -8.9775 c -24.57,0 -34.4925,-2.3625 -44.415,-17.01 0,0 -99.225,-150.255 -99.225,-150.255 z"
     id="path940"
     style="stroke:#ffffff;stroke-width:15;stroke-linecap:butt;stroke-linejoin:round;stroke-miterlimit:4;stroke-dasharray:none;stroke-opacity:1" />
  <path
     d="m 271.94025,246.95085 h -11.8125 c -4.725,48.195 -11.34,106.785 -94.5,106.785 h -38.2725 c -22.2075,0 -23.1525,-3.3075 -23.1525,-18.9 V 83.93836 c 0,-16.065 0,-22.68 44.415,-22.68 h 15.5925 v -14.175 c -17.01,1.4175 -59.535,1.4175 -78.90749,1.4175 -18.42751,0 -55.28251,0 -71.34751,-1.4175 v 14.175 h 10.8675 c 36.3825,0 37.3275,5.1975 37.3275,22.2075 v 248.06249 c 0,17.01 -0.945,22.2075 -37.3275,22.2075 h -10.8675 v 14.6475 h 245.2275 z"
     id="path1531"
     style="stroke:#ffffff;stroke-width:6.3;stroke-linecap:butt;stroke-linejoin:round;stroke-miterlimit:4;stroke-dasharray:none;stroke-opacity:1" />
  <path
     d="m 263.90775,46.61086 c -1.89,-5.67 -2.835,-7.56 -8.9775,-7.56 -6.1425,0 -7.56,1.89 -9.45,7.56 l -76.0725,192.77999 c -3.3075,8.0325 -8.9775,22.68 -38.2725,22.68 v 11.8125 h 73.2375 v -11.8125 c -14.6475,0 -23.625,-6.615 -23.625,-16.065 0,-2.3625 0.4725,-3.3075 1.4175,-6.615 0,0 16.065,-40.635 16.065,-40.635 h 93.555 l 18.9,48.195 c 0.945,1.89 1.89,4.2525 1.89,5.67 0,9.45 -17.955,9.45 -26.9325,9.45 v 11.8125 h 93.0825 v -11.8125 h -6.615 c -22.2075,0 -24.57,-3.3075 -27.87749,-12.7575 0,0 -80.32501,-202.70249 -80.32501,-202.70249 z m -18.9,33.5475 42.0525,106.78499 h -84.105 z"
     id="path1533"
     style="stroke:#ffffff;stroke-width:6.3;stroke-linecap:butt;stroke-linejoin:round;stroke-miterlimit:4;stroke-dasharray:none;stroke-opacity:1" />
  <path
     d="m 642.38025,49.91836 h -287.7525 c 0,0 -8.505,105.83999 -8.505,105.83999 h 11.34 c 6.615,-76.07249 13.7025,-91.66499 85.05,-91.66499 8.505,0 20.79,0 25.515,0.945 9.9225,1.89 9.9225,7.0875 9.9225,17.955 v 248.06249 c 0,16.065 0,22.68 -49.6125,22.68 h -18.9 v 14.6475 c 19.3725,-1.4175 67.095,-1.4175 88.83,-1.4175 21.735,0 70.4025,0 89.775,1.4175 v -14.6475 h -18.9 c -49.6125,0 -49.6125,-6.615 -49.6125,-22.68 V 82.99336 c 0,-9.45 0,-16.065 8.505,-17.955 5.1975,-0.945 17.955,-0.945 26.9325,-0.945 70.875,0 77.9625,15.5925 84.5775,91.66499 h 11.8125 c 0,0 -8.9775,-105.83999 -8.9775,-105.83999 z"
     id="path1535"
     style="stroke:#ffffff;stroke-width:6.3;stroke-linecap:butt;stroke-linejoin:round;stroke-miterlimit:4;stroke-dasharray:none;stroke-opacity:1" />
  <path
     d="m 895.64026,353.26335 h -11.8125 c -11.81251,72.2925 -22.68001,106.785 -103.47751,106.785 h -62.37 c -22.2075,0 -23.1525,-3.3075 -23.1525,-18.9 v -125.685 h 42.0525 c 45.8325,0 51.03,15.12 51.03,55.2825 h 11.8125 v -124.74 h -11.8125 c 0,40.1625 -5.1975,54.80999 -51.03,54.80999 h -42.0525 V 187.88835 c 0,-15.5925 0.945,-18.9 23.1525,-18.9 h 60.48 c 72.2925,0 84.5775,25.9875 92.1375,91.665 h 11.81251 l -13.23001,-105.84 h -264.6 v 14.175 h 10.8675 c 36.3825,0 37.3275,5.1975 37.3275,22.2075 v 246.645 c 0,17.01 -0.945,22.2075 -37.3275,22.2075 h -10.8675 v 14.6475 h 271.21501 z"
     id="path1537"
     style="stroke:#ffffff;stroke-width:6.3;stroke-linecap:butt;stroke-linejoin:round;stroke-miterlimit:4;stroke-dasharray:none;stroke-opacity:1" />
  <path
     d="m 1037.8627,186.47085 64.7325,-94.49999 c 9.9225,-15.12 25.9875,-30.24 68.04,-30.7125 v -14.175 h -112.455 v 14.175 c 18.9,0.4725 29.295,10.8675 29.295,21.735 0,4.725 -0.945,5.67 -4.2525,10.86751 0,0 -53.865,79.37998 -53.865,79.37998 L 968.87776,82.52086 c -0.945,-1.4175 -3.3075,-5.1975 -3.3075,-7.0875 0,-5.67 10.395,-13.7025 30.24,-14.175 v -14.175 c -16.065,1.4175 -50.5575,1.4175 -68.5125,1.4175 -14.6475,0 -43.9425,-0.4725 -61.42501,-1.4175 v 14.175 h 8.9775 c 25.98751,0 34.96501,3.3075 43.94251,16.5375 0,0 86.46744,130.88249 86.46744,130.88249 l -77.01744,113.8725 c -6.615,9.45 -20.79,31.185 -68.04001,31.185 v 14.6475 h 112.45501 v -14.6475 c -21.735,-0.4725 -29.7675,-13.23 -29.7675,-21.735 0,-4.2525 1.4175,-6.1425 4.725,-11.34 l 66.62244,-98.7525 74.655,112.455 c 0.945,1.89 2.3625,3.78 2.3625,5.1975 0,5.67 -10.395,13.7025 -30.7125,14.175 v 14.6475 c 16.5375,-1.4175 51.03,-1.4175 68.5125,-1.4175 19.845,0 41.58,0.4725 61.425,1.4175 v -14.6475 h -8.9775 c -24.57,0 -34.4925,-2.3625 -44.415,-17.01 0,0 -99.225,-150.255 -99.225,-150.255 z"
     id="path1539"
     style="stroke:#ffffff;stroke-width:6.3;stroke-linecap:butt;stroke-linejoin:round;stroke-miterlimit:4;stroke-dasharray:none;stroke-opacity:1" />
</svg>
